<mxfile host="Electron" modified="2023-11-20T03:37:45.446Z" agent="Mozilla/5.0 (Windows NT 10.0; Win64; x64) AppleWebKit/537.36 (KHTML, like Gecko) draw.io/22.1.2 Chrome/114.0.5735.289 Electron/25.9.4 Safari/537.36" etag="VNY9DgaosCJHiBaq-RAx" version="22.1.2" type="device">
  <diagram id="LKoKGMHOPzpljXQyV007" name="Page-1">
    <mxGraphModel dx="1731" dy="686" grid="1" gridSize="10" guides="1" tooltips="1" connect="1" arrows="1" fold="1" page="1" pageScale="1" pageWidth="1169" pageHeight="827" math="0" shadow="0">
      <root>
        <mxCell id="0" />
        <mxCell id="1" parent="0" />
        <mxCell id="KK83weV3QhbgrxJbylBw-4" value="DevOps Prod Account" style="points=[[0,0],[0.25,0],[0.5,0],[0.75,0],[1,0],[1,0.25],[1,0.5],[1,0.75],[1,1],[0.75,1],[0.5,1],[0.25,1],[0,1],[0,0.75],[0,0.5],[0,0.25]];outlineConnect=0;gradientColor=none;html=1;whiteSpace=wrap;fontSize=12;fontStyle=0;container=1;pointerEvents=0;collapsible=0;recursiveResize=0;shape=mxgraph.aws4.group;grIcon=mxgraph.aws4.group_aws_cloud_alt;strokeColor=#232F3E;fillColor=none;verticalAlign=top;align=left;spacingLeft=30;fontColor=#232F3E;dashed=0;" parent="1" vertex="1">
          <mxGeometry x="270" y="90" width="630" height="526" as="geometry" />
        </mxCell>
        <mxCell id="KK83weV3QhbgrxJbylBw-6" value="DevOps QA Account" style="points=[[0,0],[0.25,0],[0.5,0],[0.75,0],[1,0],[1,0.25],[1,0.5],[1,0.75],[1,1],[0.75,1],[0.5,1],[0.25,1],[0,1],[0,0.75],[0,0.5],[0,0.25]];outlineConnect=0;gradientColor=none;html=1;whiteSpace=wrap;fontSize=12;fontStyle=0;container=1;pointerEvents=0;collapsible=0;recursiveResize=0;shape=mxgraph.aws4.group;grIcon=mxgraph.aws4.group_aws_cloud_alt;strokeColor=#232F3E;fillColor=none;verticalAlign=top;align=left;spacingLeft=30;fontColor=#232F3E;dashed=0;" parent="KK83weV3QhbgrxJbylBw-4" vertex="1">
          <mxGeometry x="15" y="40" width="615" height="486" as="geometry" />
        </mxCell>
        <mxCell id="KK83weV3QhbgrxJbylBw-8" value="Backstage Stack" style="points=[[0,0],[0.25,0],[0.5,0],[0.75,0],[1,0],[1,0.25],[1,0.5],[1,0.75],[1,1],[0.75,1],[0.5,1],[0.25,1],[0,1],[0,0.75],[0,0.5],[0,0.25]];outlineConnect=0;gradientColor=none;html=1;whiteSpace=wrap;fontSize=12;fontStyle=0;container=0;pointerEvents=0;collapsible=0;recursiveResize=0;shape=mxgraph.aws4.group;grIcon=mxgraph.aws4.group_aws_cloud_alt;strokeColor=#232F3E;fillColor=none;verticalAlign=top;align=left;spacingLeft=30;fontColor=#232F3E;dashed=0;" parent="KK83weV3QhbgrxJbylBw-6" vertex="1">
          <mxGeometry x="15" y="30" width="600" height="456" as="geometry" />
        </mxCell>
        <mxCell id="KK83weV3QhbgrxJbylBw-16" value="VPC" style="points=[[0,0],[0.25,0],[0.5,0],[0.75,0],[1,0],[1,0.25],[1,0.5],[1,0.75],[1,1],[0.75,1],[0.5,1],[0.25,1],[0,1],[0,0.75],[0,0.5],[0,0.25]];outlineConnect=0;gradientColor=none;html=1;whiteSpace=wrap;fontSize=12;fontStyle=0;container=1;pointerEvents=0;collapsible=0;recursiveResize=0;shape=mxgraph.aws4.group;grIcon=mxgraph.aws4.group_vpc;strokeColor=#248814;fillColor=none;verticalAlign=top;align=left;spacingLeft=30;fontColor=#AAB7B8;dashed=0;" parent="KK83weV3QhbgrxJbylBw-6" vertex="1">
          <mxGeometry x="50" y="74" width="437" height="375" as="geometry" />
        </mxCell>
        <mxCell id="XNq8hwLV-amDG53qHbzE-2" value="Public subnet" style="points=[[0,0],[0.25,0],[0.5,0],[0.75,0],[1,0],[1,0.25],[1,0.5],[1,0.75],[1,1],[0.75,1],[0.5,1],[0.25,1],[0,1],[0,0.75],[0,0.5],[0,0.25]];outlineConnect=0;gradientColor=none;html=1;whiteSpace=wrap;fontSize=12;fontStyle=0;container=1;pointerEvents=0;collapsible=0;recursiveResize=0;shape=mxgraph.aws4.group;grIcon=mxgraph.aws4.group_security_group;grStroke=0;strokeColor=#248814;fillColor=#E9F3E6;verticalAlign=top;align=left;spacingLeft=30;fontColor=#248814;dashed=0;" parent="KK83weV3QhbgrxJbylBw-16" vertex="1">
          <mxGeometry x="184" y="65" width="226" height="180" as="geometry" />
        </mxCell>
        <mxCell id="KK83weV3QhbgrxJbylBw-14" value="ECS" style="sketch=0;points=[[0,0,0],[0.25,0,0],[0.5,0,0],[0.75,0,0],[1,0,0],[0,1,0],[0.25,1,0],[0.5,1,0],[0.75,1,0],[1,1,0],[0,0.25,0],[0,0.5,0],[0,0.75,0],[1,0.25,0],[1,0.5,0],[1,0.75,0]];outlineConnect=0;fontColor=#232F3E;gradientColor=#F78E04;gradientDirection=north;fillColor=#D05C17;strokeColor=#ffffff;dashed=0;verticalLabelPosition=bottom;verticalAlign=top;align=center;html=1;fontSize=12;fontStyle=0;aspect=fixed;shape=mxgraph.aws4.resourceIcon;resIcon=mxgraph.aws4.ecs;" parent="XNq8hwLV-amDG53qHbzE-2" vertex="1">
          <mxGeometry x="61" y="55" width="44" height="44" as="geometry" />
        </mxCell>
        <mxCell id="KK83weV3QhbgrxJbylBw-15" value="Postgres" style="sketch=0;outlineConnect=0;fontColor=#232F3E;gradientColor=none;fillColor=#2E27AD;strokeColor=none;dashed=0;verticalLabelPosition=bottom;verticalAlign=top;align=center;html=1;fontSize=12;fontStyle=0;aspect=fixed;pointerEvents=1;shape=mxgraph.aws4.aurora_instance_alt;" parent="XNq8hwLV-amDG53qHbzE-2" vertex="1">
          <mxGeometry x="161" y="108" width="41" height="41" as="geometry" />
        </mxCell>
        <mxCell id="KK83weV3QhbgrxJbylBw-25" style="edgeStyle=orthogonalEdgeStyle;rounded=0;orthogonalLoop=1;jettySize=auto;html=1;exitX=1;exitY=0.75;exitDx=0;exitDy=0;exitPerimeter=0;startArrow=classic;startFill=1;" parent="XNq8hwLV-amDG53qHbzE-2" source="KK83weV3QhbgrxJbylBw-14" target="KK83weV3QhbgrxJbylBw-15" edge="1">
          <mxGeometry relative="1" as="geometry">
            <Array as="points">
              <mxPoint x="182" y="88" />
            </Array>
          </mxGeometry>
        </mxCell>
        <mxCell id="KK83weV3QhbgrxJbylBw-17" value="Public subnet" style="points=[[0,0],[0.25,0],[0.5,0],[0.75,0],[1,0],[1,0.25],[1,0.5],[1,0.75],[1,1],[0.75,1],[0.5,1],[0.25,1],[0,1],[0,0.75],[0,0.5],[0,0.25]];outlineConnect=0;gradientColor=none;html=1;whiteSpace=wrap;fontSize=12;fontStyle=0;container=1;pointerEvents=0;collapsible=0;recursiveResize=0;shape=mxgraph.aws4.group;grIcon=mxgraph.aws4.group_security_group;grStroke=0;strokeColor=#248814;fillColor=#E9F3E6;verticalAlign=top;align=left;spacingLeft=30;fontColor=#248814;dashed=0;" parent="KK83weV3QhbgrxJbylBw-16" vertex="1">
          <mxGeometry x="15" y="84" width="130" height="130" as="geometry" />
        </mxCell>
        <mxCell id="KK83weV3QhbgrxJbylBw-18" value="ALB" style="outlineConnect=0;dashed=0;verticalLabelPosition=bottom;verticalAlign=top;align=center;html=1;shape=mxgraph.aws3.application_load_balancer;fillColor=#F58534;gradientColor=none;" parent="KK83weV3QhbgrxJbylBw-17" vertex="1">
          <mxGeometry x="43.43000000000001" y="43" width="43.13" height="45" as="geometry" />
        </mxCell>
        <mxCell id="KK83weV3QhbgrxJbylBw-23" style="edgeStyle=orthogonalEdgeStyle;rounded=0;orthogonalLoop=1;jettySize=auto;html=1;" parent="KK83weV3QhbgrxJbylBw-16" source="KK83weV3QhbgrxJbylBw-18" target="KK83weV3QhbgrxJbylBw-14" edge="1">
          <mxGeometry relative="1" as="geometry">
            <mxPoint x="101.56000000000006" y="140.25" as="sourcePoint" />
            <mxPoint x="245" y="143.75" as="targetPoint" />
            <Array as="points" />
          </mxGeometry>
        </mxCell>
        <mxCell id="KK83weV3QhbgrxJbylBw-31" style="edgeStyle=orthogonalEdgeStyle;rounded=0;orthogonalLoop=1;jettySize=auto;html=1;exitX=0;exitY=0.5;exitDx=0;exitDy=0;exitPerimeter=0;startArrow=none;startFill=0;" parent="KK83weV3QhbgrxJbylBw-6" source="KK83weV3QhbgrxJbylBw-27" target="KK83weV3QhbgrxJbylBw-14" edge="1">
          <mxGeometry relative="1" as="geometry">
            <mxPoint x="315" y="190" as="targetPoint" />
            <Array as="points">
              <mxPoint x="432" y="90" />
              <mxPoint x="432" y="170" />
              <mxPoint x="317" y="170" />
            </Array>
          </mxGeometry>
        </mxCell>
        <mxCell id="KK83weV3QhbgrxJbylBw-27" value="ECR" style="sketch=0;points=[[0,0,0],[0.25,0,0],[0.5,0,0],[0.75,0,0],[1,0,0],[0,1,0],[0.25,1,0],[0.5,1,0],[0.75,1,0],[1,1,0],[0,0.25,0],[0,0.5,0],[0,0.75,0],[1,0.25,0],[1,0.5,0],[1,0.75,0]];outlineConnect=0;fontColor=#232F3E;gradientColor=#F78E04;gradientDirection=north;fillColor=#D05C17;strokeColor=#ffffff;dashed=0;verticalLabelPosition=bottom;verticalAlign=top;align=center;html=1;fontSize=12;fontStyle=0;aspect=fixed;shape=mxgraph.aws4.resourceIcon;resIcon=mxgraph.aws4.ecr;" parent="KK83weV3QhbgrxJbylBw-6" vertex="1">
          <mxGeometry x="525" y="70" width="40" height="40" as="geometry" />
        </mxCell>
        <mxCell id="KK83weV3QhbgrxJbylBw-28" value="S3" style="sketch=0;points=[[0,0,0],[0.25,0,0],[0.5,0,0],[0.75,0,0],[1,0,0],[0,1,0],[0.25,1,0],[0.5,1,0],[0.75,1,0],[1,1,0],[0,0.25,0],[0,0.5,0],[0,0.75,0],[1,0.25,0],[1,0.5,0],[1,0.75,0]];outlineConnect=0;fontColor=#232F3E;gradientColor=#60A337;gradientDirection=north;fillColor=#277116;strokeColor=#ffffff;dashed=0;verticalLabelPosition=bottom;verticalAlign=top;align=center;html=1;fontSize=12;fontStyle=0;aspect=fixed;shape=mxgraph.aws4.resourceIcon;resIcon=mxgraph.aws4.s3;" parent="KK83weV3QhbgrxJbylBw-6" vertex="1">
          <mxGeometry x="525" y="150" width="40" height="40" as="geometry" />
        </mxCell>
        <mxCell id="KK83weV3QhbgrxJbylBw-29" value="Secret &lt;br&gt;manager" style="sketch=0;points=[[0,0,0],[0.25,0,0],[0.5,0,0],[0.75,0,0],[1,0,0],[0,1,0],[0.25,1,0],[0.5,1,0],[0.75,1,0],[1,1,0],[0,0.25,0],[0,0.5,0],[0,0.75,0],[1,0.25,0],[1,0.5,0],[1,0.75,0]];outlineConnect=0;fontColor=#232F3E;gradientColor=#F54749;gradientDirection=north;fillColor=#C7131F;strokeColor=#ffffff;dashed=0;verticalLabelPosition=bottom;verticalAlign=top;align=center;html=1;fontSize=12;fontStyle=0;aspect=fixed;shape=mxgraph.aws4.resourceIcon;resIcon=mxgraph.aws4.secrets_manager;" parent="KK83weV3QhbgrxJbylBw-6" vertex="1">
          <mxGeometry x="525" y="230" width="40" height="40" as="geometry" />
        </mxCell>
        <mxCell id="KK83weV3QhbgrxJbylBw-30" value="CloudWatch" style="sketch=0;points=[[0,0,0],[0.25,0,0],[0.5,0,0],[0.75,0,0],[1,0,0],[0,1,0],[0.25,1,0],[0.5,1,0],[0.75,1,0],[1,1,0],[0,0.25,0],[0,0.5,0],[0,0.75,0],[1,0.25,0],[1,0.5,0],[1,0.75,0]];points=[[0,0,0],[0.25,0,0],[0.5,0,0],[0.75,0,0],[1,0,0],[0,1,0],[0.25,1,0],[0.5,1,0],[0.75,1,0],[1,1,0],[0,0.25,0],[0,0.5,0],[0,0.75,0],[1,0.25,0],[1,0.5,0],[1,0.75,0]];outlineConnect=0;fontColor=#232F3E;gradientColor=#F34482;gradientDirection=north;fillColor=#BC1356;strokeColor=#ffffff;dashed=0;verticalLabelPosition=bottom;verticalAlign=top;align=center;html=1;fontSize=12;fontStyle=0;aspect=fixed;shape=mxgraph.aws4.resourceIcon;resIcon=mxgraph.aws4.cloudwatch_2;" parent="KK83weV3QhbgrxJbylBw-6" vertex="1">
          <mxGeometry x="525" y="317" width="43" height="43" as="geometry" />
        </mxCell>
        <mxCell id="XNq8hwLV-amDG53qHbzE-5" value="Domains" style="sketch=0;points=[[0,0,0],[0.25,0,0],[0.5,0,0],[0.75,0,0],[1,0,0],[0,1,0],[0.25,1,0],[0.5,1,0],[0.75,1,0],[1,1,0],[0,0.25,0],[0,0.5,0],[0,0.75,0],[1,0.25,0],[1,0.5,0],[1,0.75,0]];outlineConnect=0;fontColor=#232F3E;fillColor=#8C4FFF;strokeColor=#ffffff;dashed=0;verticalLabelPosition=bottom;verticalAlign=top;align=center;html=1;fontSize=12;fontStyle=0;aspect=fixed;shape=mxgraph.aws4.resourceIcon;resIcon=mxgraph.aws4.route_53;" parent="KK83weV3QhbgrxJbylBw-6" vertex="1">
          <mxGeometry x="525" y="402" width="43" height="43" as="geometry" />
        </mxCell>
        <mxCell id="XNq8hwLV-amDG53qHbzE-13" value="" style="sketch=0;points=[[0,0,0],[0.25,0,0],[0.5,0,0],[0.75,0,0],[1,0,0],[0,1,0],[0.25,1,0],[0.5,1,0],[0.75,1,0],[1,1,0],[0,0.25,0],[0,0.5,0],[0,0.75,0],[1,0.25,0],[1,0.5,0],[1,0.75,0]];points=[[0,0,0],[0.25,0,0],[0.5,0,0],[0.75,0,0],[1,0,0],[0,1,0],[0.25,1,0],[0.5,1,0],[0.75,1,0],[1,1,0],[0,0.25,0],[0,0.5,0],[0,0.75,0],[1,0.25,0],[1,0.5,0],[1,0.75,0]];outlineConnect=0;fontColor=#232F3E;fillColor=#E7157B;strokeColor=#ffffff;dashed=0;verticalLabelPosition=bottom;verticalAlign=top;align=center;html=1;fontSize=12;fontStyle=0;aspect=fixed;shape=mxgraph.aws4.resourceIcon;resIcon=mxgraph.aws4.cloudformation;" parent="KK83weV3QhbgrxJbylBw-6" vertex="1">
          <mxGeometry x="15" y="30" width="30" height="30" as="geometry" />
        </mxCell>
        <mxCell id="KK83weV3QhbgrxJbylBw-37" style="edgeStyle=orthogonalEdgeStyle;rounded=0;orthogonalLoop=1;jettySize=auto;html=1;startArrow=none;startFill=0;exitX=1;exitY=0.5;exitDx=0;exitDy=0;" parent="1" source="XNq8hwLV-amDG53qHbzE-6" target="KK83weV3QhbgrxJbylBw-18" edge="1">
          <mxGeometry relative="1" as="geometry" />
        </mxCell>
        <mxCell id="KK83weV3QhbgrxJbylBw-94" style="edgeStyle=orthogonalEdgeStyle;rounded=0;orthogonalLoop=1;jettySize=auto;html=1;exitX=0.5;exitY=0;exitDx=0;exitDy=0;startArrow=none;startFill=0;strokeColor=#000000;strokeWidth=1;shadow=1;" parent="1" source="XNq8hwLV-amDG53qHbzE-17" target="KK83weV3QhbgrxJbylBw-14" edge="1">
          <mxGeometry relative="1" as="geometry">
            <Array as="points">
              <mxPoint x="755" y="670" />
              <mxPoint x="600" y="670" />
            </Array>
            <mxPoint x="639.5" y="763" as="sourcePoint" />
            <mxPoint x="600" y="370" as="targetPoint" />
          </mxGeometry>
        </mxCell>
        <mxCell id="XNq8hwLV-amDG53qHbzE-6" value="Internet Users" style="strokeColor=#dddddd;shadow=1;strokeWidth=1;rounded=1;absoluteArcSize=1;arcSize=2;labelPosition=center;verticalLabelPosition=middle;align=center;verticalAlign=bottom;spacingLeft=0;fontColor=#999999;fontSize=12;whiteSpace=wrap;spacingBottom=2;html=1;" parent="1" vertex="1">
          <mxGeometry x="90" y="311" width="70" height="85" as="geometry" />
        </mxCell>
        <mxCell id="XNq8hwLV-amDG53qHbzE-7" value="" style="sketch=0;dashed=0;connectable=0;html=1;fillColor=#757575;strokeColor=none;shape=mxgraph.gcp2.users;part=1;" parent="XNq8hwLV-amDG53qHbzE-6" vertex="1">
          <mxGeometry x="0.5" width="50" height="31.5" relative="1" as="geometry">
            <mxPoint x="-25" y="19.25" as="offset" />
          </mxGeometry>
        </mxCell>
        <mxCell id="XNq8hwLV-amDG53qHbzE-15" value="AWS DevOps" style="points=[[0,0],[0.25,0],[0.5,0],[0.75,0],[1,0],[1,0.25],[1,0.5],[1,0.75],[1,1],[0.75,1],[0.5,1],[0.25,1],[0,1],[0,0.75],[0,0.5],[0,0.25]];outlineConnect=0;gradientColor=none;html=1;whiteSpace=wrap;fontSize=12;fontStyle=0;container=1;pointerEvents=0;collapsible=0;recursiveResize=0;shape=mxgraph.aws4.group;grIcon=mxgraph.aws4.group_aws_cloud_alt;strokeColor=#232F3E;fillColor=none;verticalAlign=top;align=left;spacingLeft=30;fontColor=#232F3E;dashed=0;" parent="1" vertex="1">
          <mxGeometry x="270" y="640" width="630" height="201.4" as="geometry" />
        </mxCell>
        <mxCell id="XNq8hwLV-amDG53qHbzE-16" value="Infrastructure Pipeline" style="fillColor=#dae8fc;strokeColor=#6c8ebf;dashed=1;verticalAlign=top;fontStyle=0;whiteSpace=wrap;html=1;" parent="XNq8hwLV-amDG53qHbzE-15" vertex="1">
          <mxGeometry x="14" y="60" width="290" height="120" as="geometry" />
        </mxCell>
        <mxCell id="XNq8hwLV-amDG53qHbzE-17" value="Application Pipeline" style="fillColor=#e1d5e7;strokeColor=#9673a6;dashed=1;verticalAlign=top;fontStyle=0;whiteSpace=wrap;html=1;" parent="XNq8hwLV-amDG53qHbzE-15" vertex="1">
          <mxGeometry x="330" y="60" width="290" height="120" as="geometry" />
        </mxCell>
        <mxCell id="XNq8hwLV-amDG53qHbzE-30" value="" style="sketch=0;outlineConnect=0;fontColor=#232F3E;gradientColor=none;strokeColor=#ffffff;fillColor=#232F3E;dashed=0;verticalLabelPosition=middle;verticalAlign=bottom;align=center;html=1;whiteSpace=wrap;fontSize=10;fontStyle=1;spacing=3;shape=mxgraph.aws4.productIcon;prIcon=mxgraph.aws4.codepipeline;" parent="XNq8hwLV-amDG53qHbzE-15" vertex="1">
          <mxGeometry x="14" y="60" width="36" height="30" as="geometry" />
        </mxCell>
        <mxCell id="XNq8hwLV-amDG53qHbzE-32" value="" style="sketch=0;outlineConnect=0;fontColor=#232F3E;gradientColor=none;strokeColor=#ffffff;fillColor=#232F3E;dashed=0;verticalLabelPosition=middle;verticalAlign=bottom;align=center;html=1;whiteSpace=wrap;fontSize=10;fontStyle=1;spacing=3;shape=mxgraph.aws4.productIcon;prIcon=mxgraph.aws4.codepipeline;" parent="XNq8hwLV-amDG53qHbzE-15" vertex="1">
          <mxGeometry x="330" y="60" width="36" height="30" as="geometry" />
        </mxCell>
        <mxCell id="nvxWpU7Ak5jCbN-eCji1-2" style="edgeStyle=orthogonalEdgeStyle;rounded=0;orthogonalLoop=1;jettySize=auto;html=1;" edge="1" parent="XNq8hwLV-amDG53qHbzE-15" source="XNq8hwLV-amDG53qHbzE-51" target="nvxWpU7Ak5jCbN-eCji1-1">
          <mxGeometry relative="1" as="geometry" />
        </mxCell>
        <mxCell id="XNq8hwLV-amDG53qHbzE-51" value="Code Build" style="sketch=0;points=[[0,0,0],[0.25,0,0],[0.5,0,0],[0.75,0,0],[1,0,0],[0,1,0],[0.25,1,0],[0.5,1,0],[0.75,1,0],[1,1,0],[0,0.25,0],[0,0.5,0],[0,0.75,0],[1,0.25,0],[1,0.5,0],[1,0.75,0]];outlineConnect=0;fontColor=#232F3E;gradientColor=#4D72F3;gradientDirection=north;fillColor=#3334B9;strokeColor=#ffffff;dashed=0;verticalLabelPosition=bottom;verticalAlign=top;align=center;html=1;fontSize=12;fontStyle=0;aspect=fixed;shape=mxgraph.aws4.resourceIcon;resIcon=mxgraph.aws4.codebuild;" parent="XNq8hwLV-amDG53qHbzE-15" vertex="1">
          <mxGeometry x="120" y="110" width="40" height="40" as="geometry" />
        </mxCell>
        <mxCell id="XNq8hwLV-amDG53qHbzE-58" style="edgeStyle=orthogonalEdgeStyle;rounded=0;orthogonalLoop=1;jettySize=auto;html=1;" parent="XNq8hwLV-amDG53qHbzE-15" source="XNq8hwLV-amDG53qHbzE-56" target="XNq8hwLV-amDG53qHbzE-51" edge="1">
          <mxGeometry relative="1" as="geometry" />
        </mxCell>
        <mxCell id="XNq8hwLV-amDG53qHbzE-56" value="GitHub" style="dashed=0;outlineConnect=0;html=1;align=center;labelPosition=center;verticalLabelPosition=bottom;verticalAlign=top;shape=mxgraph.weblogos.github" parent="XNq8hwLV-amDG53qHbzE-15" vertex="1">
          <mxGeometry x="30" y="110" width="40" height="40" as="geometry" />
        </mxCell>
        <mxCell id="XNq8hwLV-amDG53qHbzE-59" style="edgeStyle=orthogonalEdgeStyle;rounded=0;orthogonalLoop=1;jettySize=auto;html=1;" parent="XNq8hwLV-amDG53qHbzE-15" target="XNq8hwLV-amDG53qHbzE-53" edge="1">
          <mxGeometry relative="1" as="geometry">
            <mxPoint x="430" y="130" as="sourcePoint" />
          </mxGeometry>
        </mxCell>
        <mxCell id="nvxWpU7Ak5jCbN-eCji1-1" value="Code Deploy" style="sketch=0;points=[[0,0,0],[0.25,0,0],[0.5,0,0],[0.75,0,0],[1,0,0],[0,1,0],[0.25,1,0],[0.5,1,0],[0.75,1,0],[1,1,0],[0,0.25,0],[0,0.5,0],[0,0.75,0],[1,0.25,0],[1,0.5,0],[1,0.75,0]];outlineConnect=0;fontColor=#232F3E;gradientColor=#4D72F3;gradientDirection=north;fillColor=#3334B9;strokeColor=#ffffff;dashed=0;verticalLabelPosition=bottom;verticalAlign=top;align=center;html=1;fontSize=12;fontStyle=0;aspect=fixed;shape=mxgraph.aws4.resourceIcon;resIcon=mxgraph.aws4.codedeploy;" vertex="1" parent="XNq8hwLV-amDG53qHbzE-15">
          <mxGeometry x="210" y="110" width="40" height="40" as="geometry" />
        </mxCell>
        <mxCell id="nvxWpU7Ak5jCbN-eCji1-7" style="edgeStyle=orthogonalEdgeStyle;rounded=0;orthogonalLoop=1;jettySize=auto;html=1;" edge="1" parent="XNq8hwLV-amDG53qHbzE-15" source="nvxWpU7Ak5jCbN-eCji1-3" target="nvxWpU7Ak5jCbN-eCji1-5">
          <mxGeometry relative="1" as="geometry" />
        </mxCell>
        <mxCell id="nvxWpU7Ak5jCbN-eCji1-3" value="Code Build" style="sketch=0;points=[[0,0,0],[0.25,0,0],[0.5,0,0],[0.75,0,0],[1,0,0],[0,1,0],[0.25,1,0],[0.5,1,0],[0.75,1,0],[1,1,0],[0,0.25,0],[0,0.5,0],[0,0.75,0],[1,0.25,0],[1,0.5,0],[1,0.75,0]];outlineConnect=0;fontColor=#232F3E;gradientColor=#4D72F3;gradientDirection=north;fillColor=#3334B9;strokeColor=#ffffff;dashed=0;verticalLabelPosition=bottom;verticalAlign=top;align=center;html=1;fontSize=12;fontStyle=0;aspect=fixed;shape=mxgraph.aws4.resourceIcon;resIcon=mxgraph.aws4.codebuild;" vertex="1" parent="XNq8hwLV-amDG53qHbzE-15">
          <mxGeometry x="450" y="110" width="40" height="40" as="geometry" />
        </mxCell>
        <mxCell id="nvxWpU7Ak5jCbN-eCji1-6" style="edgeStyle=orthogonalEdgeStyle;rounded=0;orthogonalLoop=1;jettySize=auto;html=1;" edge="1" parent="XNq8hwLV-amDG53qHbzE-15" source="nvxWpU7Ak5jCbN-eCji1-4" target="nvxWpU7Ak5jCbN-eCji1-3">
          <mxGeometry relative="1" as="geometry" />
        </mxCell>
        <mxCell id="nvxWpU7Ak5jCbN-eCji1-4" value="GitHub" style="dashed=0;outlineConnect=0;html=1;align=center;labelPosition=center;verticalLabelPosition=bottom;verticalAlign=top;shape=mxgraph.weblogos.github" vertex="1" parent="XNq8hwLV-amDG53qHbzE-15">
          <mxGeometry x="360" y="110" width="40" height="40" as="geometry" />
        </mxCell>
        <mxCell id="nvxWpU7Ak5jCbN-eCji1-5" value="Code Deploy" style="sketch=0;points=[[0,0,0],[0.25,0,0],[0.5,0,0],[0.75,0,0],[1,0,0],[0,1,0],[0.25,1,0],[0.5,1,0],[0.75,1,0],[1,1,0],[0,0.25,0],[0,0.5,0],[0,0.75,0],[1,0.25,0],[1,0.5,0],[1,0.75,0]];outlineConnect=0;fontColor=#232F3E;gradientColor=#4D72F3;gradientDirection=north;fillColor=#3334B9;strokeColor=#ffffff;dashed=0;verticalLabelPosition=bottom;verticalAlign=top;align=center;html=1;fontSize=12;fontStyle=0;aspect=fixed;shape=mxgraph.aws4.resourceIcon;resIcon=mxgraph.aws4.codedeploy;" vertex="1" parent="XNq8hwLV-amDG53qHbzE-15">
          <mxGeometry x="540" y="110" width="40" height="40" as="geometry" />
        </mxCell>
        <mxCell id="XNq8hwLV-amDG53qHbzE-22" style="edgeStyle=orthogonalEdgeStyle;rounded=0;orthogonalLoop=1;jettySize=auto;html=1;strokeColor=#080808;strokeWidth=1;shadow=1;" parent="1" source="XNq8hwLV-amDG53qHbzE-16" target="XNq8hwLV-amDG53qHbzE-13" edge="1">
          <mxGeometry relative="1" as="geometry" />
        </mxCell>
        <mxCell id="XNq8hwLV-amDG53qHbzE-23" style="edgeStyle=orthogonalEdgeStyle;rounded=0;orthogonalLoop=1;jettySize=auto;html=1;exitX=0.5;exitY=1;exitDx=0;exitDy=0;" parent="1" source="XNq8hwLV-amDG53qHbzE-15" target="XNq8hwLV-amDG53qHbzE-15" edge="1">
          <mxGeometry relative="1" as="geometry" />
        </mxCell>
        <mxCell id="XNq8hwLV-amDG53qHbzE-62" style="edgeStyle=orthogonalEdgeStyle;rounded=0;orthogonalLoop=1;jettySize=auto;html=1;" parent="1" source="XNq8hwLV-amDG53qHbzE-61" target="XNq8hwLV-amDG53qHbzE-15" edge="1">
          <mxGeometry relative="1" as="geometry" />
        </mxCell>
        <mxCell id="XNq8hwLV-amDG53qHbzE-61" value="DevOps Users" style="image;aspect=fixed;perimeter=ellipsePerimeter;html=1;align=center;shadow=0;dashed=0;fontColor=#4277BB;labelBackgroundColor=default;fontSize=12;spacingTop=3;image=img/lib/ibm/devops/devops.svg;" parent="1" vertex="1">
          <mxGeometry x="95" y="710.7" width="60" height="60" as="geometry" />
        </mxCell>
      </root>
    </mxGraphModel>
  </diagram>
</mxfile>
